name rise49.25peak52.1432fall72.8391.mot
datacolumns 19
datarows 21
range 1.95332200000000 1.98666200000000
endheader
time	ground_force1_vx	ground_force1_vy	ground_force1_vz	ground_force1_px	ground_force1_py	ground_force1_pz	ground_force2_vx	ground_force2_vy	ground_force2_vz	ground_force2_px	ground_force2_py	ground_force2_pz	ground_torque1_x	ground_torque1_y	ground_torque1_z	ground_torque2_x	ground_torque2_y	ground_torque2_z	
1.95332200000000	11.48566500000000	735.15695500000004	42.50966600000000	0.26073400000000	0.00000000000000	0.10761000000000	0.00000000000000	0.00000000000000	0.00000000000000	0.00000000000000	0.00000000000000	0.00000000000000	0.00000000000000	20.37993700000000	0.00000000000000	0.00000000000000	0.00000000000000	0.00000000000000	
1.95499500000000	11.13842400000000	735.72721300000001	42.63448600000000	0.25991300000000	0.00000000000000	0.10768900000000	0.00000000000000	0.00000000000000	0.00000000000000	0.00000000000000	0.00000000000000	0.00000000000000	0.00000000000000	20.46512600000000	0.00000000000000	0.00000000000000	0.00000000000000	0.00000000000000	
1.95666600000000	10.78613700000000	736.28851699999996	42.76212400000000	0.25910400000000	0.00000000000000	0.10776700000000	0.00000000000000	0.00000000000000	0.00000000000000	0.00000000000000	0.00000000000000	0.00000000000000	0.00000000000000	20.55381800000000	0.00000000000000	0.00000000000000	0.00000000000000	0.00000000000000	
1.95833600000000	10.42880600000000	736.84020899999996	42.89214800000000	0.25830700000000	0.00000000000000	0.10784400000000	0.00000000000000	0.00000000000000	0.00000000000000	0.00000000000000	0.00000000000000	0.00000000000000	0.00000000000000	20.64578100000000	0.00000000000000	0.00000000000000	0.00000000000000	0.00000000000000	
1.95999300000000	10.06645200000000	737.38173600000005	43.02412600000000	0.25752000000000	0.00000000000000	0.10792000000000	0.00000000000000	0.00000000000000	0.00000000000000	0.00000000000000	0.00000000000000	0.00000000000000	0.00000000000000	20.74078300000000	0.00000000000000	0.00000000000000	0.00000000000000	0.00000000000000	
1.96165400000000	9.69911100000000	737.91264200000001	43.15763300000000	0.25674400000000	0.00000000000000	0.10799500000000	0.00000000000000	0.00000000000000	0.00000000000000	0.00000000000000	0.00000000000000	0.00000000000000	0.00000000000000	20.83858300000000	0.00000000000000	0.00000000000000	0.00000000000000	0.00000000000000	
1.96332100000000	9.32683600000000	738.43256799999995	43.29224600000000	0.25597800000000	0.00000000000000	0.10806900000000	0.00000000000000	0.00000000000000	0.00000000000000	0.00000000000000	0.00000000000000	0.00000000000000	0.00000000000000	20.93894300000000	0.00000000000000	0.00000000000000	0.00000000000000	0.00000000000000	
1.96499500000000	8.94969400000000	738.94125099999997	43.42755300000000	0.25522100000000	0.00000000000000	0.10814200000000	0.00000000000000	0.00000000000000	0.00000000000000	0.00000000000000	0.00000000000000	0.00000000000000	0.00000000000000	21.04161900000000	0.00000000000000	0.00000000000000	0.00000000000000	0.00000000000000	
1.96665800000000	8.56776600000000	739.43852100000004	43.56314500000000	0.25447300000000	0.00000000000000	0.10821300000000	0.00000000000000	0.00000000000000	0.00000000000000	0.00000000000000	0.00000000000000	0.00000000000000	0.00000000000000	21.14636600000000	0.00000000000000	0.00000000000000	0.00000000000000	0.00000000000000	
1.96832600000000	8.18114600000000	739.92430000000002	43.69862400000000	0.25373300000000	0.00000000000000	0.10828300000000	0.00000000000000	0.00000000000000	0.00000000000000	0.00000000000000	0.00000000000000	0.00000000000000	0.00000000000000	21.25293900000000	0.00000000000000	0.00000000000000	0.00000000000000	0.00000000000000	
1.96999100000000	7.78994300000000	740.39859500000000	43.83360400000000	0.25300100000000	0.00000000000000	0.10835200000000	0.00000000000000	0.00000000000000	0.00000000000000	0.00000000000000	0.00000000000000	0.00000000000000	0.00000000000000	21.36109400000000	0.00000000000000	0.00000000000000	0.00000000000000	0.00000000000000	
1.97166100000000	7.39427300000000	740.86149799999998	43.96770800000000	0.25227600000000	0.00000000000000	0.10841800000000	0.00000000000000	0.00000000000000	0.00000000000000	0.00000000000000	0.00000000000000	0.00000000000000	0.00000000000000	21.47058600000000	0.00000000000000	0.00000000000000	0.00000000000000	0.00000000000000	
1.97333400000000	6.99426400000000	741.31318199999998	44.10057200000000	0.25155800000000	0.00000000000000	0.10848400000000	0.00000000000000	0.00000000000000	0.00000000000000	0.00000000000000	0.00000000000000	0.00000000000000	0.00000000000000	21.58117200000000	0.00000000000000	0.00000000000000	0.00000000000000	0.00000000000000	
1.97498700000000	6.59005400000000	741.75389600000005	44.23184700000000	0.25084600000000	0.00000000000000	0.10854700000000	0.00000000000000	0.00000000000000	0.00000000000000	0.00000000000000	0.00000000000000	0.00000000000000	0.00000000000000	21.69261100000000	0.00000000000000	0.00000000000000	0.00000000000000	0.00000000000000	
1.97665600000000	6.18178900000000	742.18396199999995	44.36119900000000	0.25013900000000	0.00000000000000	0.10860800000000	0.00000000000000	0.00000000000000	0.00000000000000	0.00000000000000	0.00000000000000	0.00000000000000	0.00000000000000	21.80466500000000	0.00000000000000	0.00000000000000	0.00000000000000	0.00000000000000	
1.97832800000000	5.76962300000000	742.60377000000005	44.48830900000000	0.24943600000000	0.00000000000000	0.10866800000000	0.00000000000000	0.00000000000000	0.00000000000000	0.00000000000000	0.00000000000000	0.00000000000000	0.00000000000000	21.91710200000000	0.00000000000000	0.00000000000000	0.00000000000000	0.00000000000000	
1.97998900000000	5.35371400000000	743.01377600000001	44.61287600000000	0.24873800000000	0.00000000000000	0.10872600000000	0.00000000000000	0.00000000000000	0.00000000000000	0.00000000000000	0.00000000000000	0.00000000000000	0.00000000000000	22.02969200000000	0.00000000000000	0.00000000000000	0.00000000000000	0.00000000000000	
1.98166000000000	4.93422900000000	743.41449200000000	44.73461800000000	0.24804300000000	0.00000000000000	0.10878200000000	0.00000000000000	0.00000000000000	0.00000000000000	0.00000000000000	0.00000000000000	0.00000000000000	0.00000000000000	22.14221000000000	0.00000000000000	0.00000000000000	0.00000000000000	0.00000000000000	
1.98332200000000	4.51133800000000	743.80648799999994	44.85327000000000	0.24735000000000	0.00000000000000	0.10883500000000	0.00000000000000	0.00000000000000	0.00000000000000	0.00000000000000	0.00000000000000	0.00000000000000	0.00000000000000	22.25443900000000	0.00000000000000	0.00000000000000	0.00000000000000	0.00000000000000	
1.98499200000000	4.08521500000000	744.19038399999999	44.96859000000000	0.24665900000000	0.00000000000000	0.10888700000000	0.00000000000000	0.00000000000000	0.00000000000000	0.00000000000000	0.00000000000000	0.00000000000000	0.00000000000000	22.36616600000000	0.00000000000000	0.00000000000000	0.00000000000000	0.00000000000000	
1.98666200000000	3.65603800000000	744.56684399999995	45.08035500000000	0.24597000000000	0.00000000000000	0.10893700000000	0.00000000000000	0.00000000000000	0.00000000000000	0.00000000000000	0.00000000000000	0.00000000000000	0.00000000000000	22.47718800000000	0.00000000000000	0.00000000000000	0.00000000000000	0.00000000000000	
